<svg width="18" height="18" viewBox="0 0 18 18" fill="none" xmlns="http://www.w3.org/2000/svg">
<path d="M9 12.375C10.864 12.375 12.375 10.864 12.375 9C12.375 7.13604 10.864 5.625 9 5.625C7.13604 5.625 5.625 7.13604 5.625 9C5.625 10.864 7.13604 12.375 9 12.375Z" stroke="#9F9BB9" stroke-width="2" stroke-linecap="round" stroke-linejoin="round"/>
<path d="M12.9165 4.57715C13.0946 4.74121 13.2633 4.90996 13.4227 5.0834L15.3422 5.35762C15.655 5.90079 15.8961 6.48219 16.0594 7.08731L14.8922 8.64121C14.8922 8.64121 14.9133 9.11934 14.8922 9.3584L16.0594 10.9123C15.8968 11.5177 15.6557 12.0992 15.3422 12.642L13.4227 12.9162C13.4227 12.9162 13.0922 13.2607 12.9165 13.4225L12.6422 15.342C12.0991 15.6548 11.5177 15.8958 10.9125 16.0592L9.35864 14.892C9.12005 14.9131 8.88005 14.9131 8.64146 14.892L7.08755 16.0592C6.48217 15.8966 5.90068 15.6555 5.35786 15.342L5.08364 13.4225C4.91021 13.2584 4.74146 13.0896 4.57739 12.9162L2.65786 12.642C2.3451 12.0988 2.10403 11.5174 1.94067 10.9123L3.10786 9.3584C3.10786 9.3584 3.08677 8.88027 3.10786 8.64121L1.94067 7.08731C2.10327 6.48193 2.34438 5.90043 2.65786 5.35762L4.57739 5.0834C4.74146 4.90996 4.91021 4.74121 5.08364 4.57715L5.35786 2.65762C5.90103 2.34485 6.48243 2.10379 7.08755 1.94043L8.64146 3.10762C8.88005 3.08652 9.12005 3.08652 9.35864 3.10762L10.9125 1.94043C11.5179 2.10303 12.0994 2.34414 12.6422 2.65762L12.9165 4.57715Z" stroke="#9F9BB9" stroke-width="2" stroke-linecap="round" stroke-linejoin="round"/>
</svg>
