<svg width="18" height="18" viewBox="0 0 18 18" fill="none" xmlns="http://www.w3.org/2000/svg">
<path d="M9.40076 14.8994L15.0961 9.20412C16.4953 7.79787 16.6992 5.49866 15.3773 4.02913C15.0458 3.6588 14.6423 3.35995 14.1914 3.15084C13.7404 2.94173 13.2516 2.82676 12.7548 2.81294C12.258 2.79912 11.7635 2.88674 11.3017 3.07047C10.8398 3.25419 10.4203 3.53014 10.0687 3.88147L8.99998 4.95725L8.07888 4.02913C6.67263 2.62991 4.37341 2.426 2.90388 3.74788C2.53355 4.07939 2.2347 4.48293 2.0256 4.93384C1.81649 5.38474 1.70151 5.87355 1.68769 6.3704C1.67387 6.86724 1.7615 7.36169 1.94522 7.82352C2.12894 8.28536 2.4049 8.70488 2.75622 9.05647L8.59919 14.8994C8.70584 15.0051 8.84987 15.0643 8.99998 15.0643C9.15008 15.0643 9.29411 15.0051 9.40076 14.8994V14.8994Z" stroke="#9F9BB9" stroke-width="2" stroke-linecap="round" stroke-linejoin="round"/>
</svg>
